<svg id="Layer_1" data-name="Layer 1" xmlns="http://www.w3.org/2000/svg" xmlns:xlink="http://www.w3.org/1999/xlink" viewBox="0 0 768.3 1337.12"><defs><style>.cls-1{fill:#6ca89f;}.cls-1,.cls-10,.cls-11,.cls-12,.cls-13,.cls-14,.cls-15,.cls-2,.cls-3,.cls-4,.cls-5,.cls-6,.cls-7,.cls-8,.cls-9{stroke:#000;stroke-miterlimit:10;}.cls-2{fill:#b75cbc;}.cls-3{fill:#d57ae2;}.cls-10,.cls-3,.cls-5,.cls-9{stroke-width:4px;}.cls-4{fill:#eaa9de;}.cls-5{fill:#5045d8;opacity:0.31;isolation:isolate;}.cls-6{fill:url(#linear-gradient);}.cls-7{fill:#76c5dd;}.cls-8{fill:#4e97b7;}.cls-9{fill:#8ae4f9;}.cls-10{fill:none;}.cls-11{fill:#8378ea;}.cls-12{fill:#c08bf2;}.cls-13{fill:#b3b3f4;}.cls-14{fill:#9be0d6;}.cls-15{fill:#dfc5ef;stroke-width:3px;}.cls-16{fill:#a8e2f4;}.cls-17{fill:#202020;stroke:#202020;stroke-width:3.44px;}.cls-18{fill:#fff;}.cls-19{fill:#e8b5e5;}.cls-20{fill:#d1d3d4;}.cls-20,.cls-21{stroke:#231f20;}.cls-21{fill:#231f20;}</style><linearGradient id="linear-gradient" x1="491.73" y1="127.5" x2="761.73" y2="127.5" gradientUnits="userSpaceOnUse"><stop offset="0" stop-color="#ab6aff"/><stop offset="0.49" stop-color="#e9c7ff" stop-opacity="0"/><stop offset="1" stop-color="#c473ff" stop-opacity="0.96"/></linearGradient></defs><title>Iphone</title><ellipse class="cls-1" cx="623.73" cy="1135.5" rx="135" ry="126"/><ellipse class="cls-2" cx="626.73" cy="379.5" rx="135" ry="126"/><ellipse class="cls-3" cx="383.73" cy="379.5" rx="135" ry="126"/><ellipse class="cls-4" cx="142.73" cy="379.5" rx="135" ry="126"/><ellipse class="cls-5" cx="623.73" cy="631.5" rx="135" ry="126"/><ellipse class="cls-6" cx="626.73" cy="127.5" rx="135" ry="126"/><ellipse class="cls-7" cx="629.13" cy="884.4" rx="135" ry="126"/><ellipse class="cls-8" cx="383.73" cy="1135.5" rx="135" ry="126"/><ellipse class="cls-9" cx="376.73" cy="883.5" rx="135" ry="126"/><ellipse class="cls-10" cx="142.73" cy="1135.5" rx="135" ry="126"/><ellipse class="cls-11" cx="383.73" cy="631.5" rx="135" ry="126"/><ellipse class="cls-12" cx="383.73" cy="127.5" rx="135" ry="126"/><ellipse class="cls-13" cx="142.73" cy="631.5" rx="135" ry="126"/><ellipse class="cls-14" cx="142.73" cy="883.5" rx="135" ry="126"/><ellipse class="cls-15" cx="142.73" cy="127.5" rx="135" ry="126"/><path class="cls-16" d="M107.2,129c-17.9,47.5,144.7,66.2,18.3-47.5Z" transform="translate(8.23 2)"/><path class="cls-17" d="M112.6,120.7c4.8-4.3,8.9-6.8,12.3-7.4a7.87,7.87,0,0,1,4.6.4,5.86,5.86,0,0,1,1.9,1.3,6.47,6.47,0,0,1,.8.9l.1.1.1.3.3.7.6,1.3,1.4,1.3c-.7-2.5-1.6-5.1-2.6-7.8l-.8-2.1a6.78,6.78,0,0,0-.8-1.7,20.28,20.28,0,0,0-1.3-1.8,12.31,12.31,0,0,0-6.1-4.4l2.4-6.3,1.2-3.2.3-.8c.1-.2.2-.7.4-.3l1.2,1.1c3.3,3,6.6,6.1,9.8,9.3,4.3,4.3,8.5,8.7,12.4,13.3a110.39,110.39,0,0,1,10.7,14.7,61.52,61.52,0,0,1,4.1,8.1,26.82,26.82,0,0,1,2,8.8,17.26,17.26,0,0,1-.5,4.5,18,18,0,0,1-.8,2.1,13.42,13.42,0,0,1-4.5,5,19.48,19.48,0,0,1-4.1,2,31.45,31.45,0,0,1-4.4,1.1,40.33,40.33,0,0,1-13.4-5.3,33.68,33.68,0,0,1-4.4-3.4,17.91,17.91,0,0,1-2.9-3.5,8.31,8.31,0,0,1-1.5-6.3,4.86,4.86,0,0,1,3.7-3.6c0-.1-.1-.3,0-.4a9.72,9.72,0,0,0-6.7,2,8.81,8.81,0,0,0-3.3,5.9c-.7,4.8,2.1,10.9,8.5,16.9a36.87,36.87,0,0,1-14,2.1,47.24,47.24,0,0,1-17.6-4.1,44.42,44.42,0,0,1-16-12.1l-1.6-2.1a17,17,0,0,1-1.5-2.2,43.09,43.09,0,0,1-2.6-4.7A47.16,47.16,0,0,1,76.5,130a51,51,0,0,0,.4,15.1,48.46,48.46,0,0,0,7.7,12.7,53.19,53.19,0,0,0,10.9,9.8,32.84,32.84,0,0,0,3.1,2l3.2,1.8c2.2,1,4.3,2.1,6.6,2.9a58.9,58.9,0,0,0,13.1,3.4c2.1.3,4.3.5,6.3.7s4,.1,6,0a52.23,52.23,0,0,0,19.3-4.3,42.67,42.67,0,0,0,7-4,41.68,41.68,0,0,0,5.7-1.8c1-.4,1.8-.9,2.7-1.3a11,11,0,0,0,2.5-1.7,21.9,21.9,0,0,0,4.3-4.3,22.6,22.6,0,0,0,1.6-2.6c.4-1,.8-1.9,1.1-2.9a25,25,0,0,0,.9-6.1,35.94,35.94,0,0,0-2.2-12.1,65.21,65.21,0,0,0-5.3-11.4l-1.6-2.7-1.7-2.7c-.6-.9-1.2-1.8-1.8-2.6l-1.9-2.6c-1.3-1.7-2.6-3.3-3.9-5l-4.1-4.8c-5.5-6.4-11.4-12.3-17.3-18-4.4-4.3-8.9-8.5-13.4-12.6L124,73.3c-.3-.5-.4.1-.6.4l-.4,1.1-1.7,4.3-3.4,8.6c.3-6.9.9-14.5,1.9-22.8l.8-6.3c0-1.5.5-1.1.9-1.2s.8-.1,1.2-.2a28.26,28.26,0,0,1,5.1-.2l-6-5.5-1.4-.5-.7-.2c-.1,0-.2-.1-.3-.1l-.2.7L118,56.9c-.8,3.6-1.5,7.1-2.1,10.6-1.3,6.8-2.4,13.3-3.4,19.3a265.06,265.06,0,0,0-3.3,31.4c-.7,3.7-1.3,7.2-1.9,10.6C109.2,125.8,110.9,123.2,112.6,120.7Z" transform="translate(8.23 2)"/><path class="cls-18" d="M120.6,170.3c1.2.6,2.5,1.1,3.7,1.6a51.58,51.58,0,0,0,15.4-.5,47.94,47.94,0,0,0,11.6-3.7,33.64,33.64,0,0,0,4.8-1.4,56.1,56.1,0,0,1-5.9-.6c-8.9-2.8-15.4-7.1-19.3-11.3a8.86,8.86,0,0,1-1.7-.8,29.92,29.92,0,0,0,4.2,6c.9,1,2,2,3.1,3l1.8,1.5,1,.7a7,7,0,0,0,1,.8,33.5,33.5,0,0,1-8.5,3.3A35.44,35.44,0,0,1,120.6,170.3Z" transform="translate(8.23 2)"/><path class="cls-18" d="M117.8,75.1l-1.3,3.3a319.63,319.63,0,0,0-4.1,34.7l-1.1,5.8,2.7-4.1c5-4.2,9.2-6.4,12.6-6.5l.7-1.7a12.11,12.11,0,0,0-10.4-2.3A216.17,216.17,0,0,1,117.8,75.1Z" transform="translate(8.23 2)"/><polygon class="cls-4" points="124.53 1249.8 97.42 1281 106.92 1321.2 69.92 1304.9 35.33 1327 39.52 1285.7 8.72 1259.1 48.33 1250 63.83 1211.4 84.13 1247.1 124.53 1249.8"/><polygon class="cls-4" points="125.53 1291.6 84.92 1298.8 66.92 1336 48.42 1300 7.63 1295.4 36.92 1265.9 29.73 1225.9 66.33 1243.7 102.63 1223.6 95.92 1264 125.53 1291.6"/><polygon class="cls-4" points="720.02 96.6 694.63 76.9 664.23 87.2 674.92 56.3 656.13 30 688.02 30.6 706.83 4 715.92 35.2 746.33 45.1 720.02 63.9 720.02 96.6"/><polygon class="cls-4" points="654.92 56 680.83 37.1 679.33 5 706.02 23.8 736.52 13 727.13 43.6 747.52 69 714.92 69.1 697.02 95.5 686.33 65 654.92 56"/><polygon class="cls-4" points="767.23 1284.5 728.42 1291.3 710.63 1326.6 693.63 1292.4 654.92 1288 683.33 1260.1 677.02 1222.2 711.63 1239.1 746.52 1220 739.42 1258.4 767.23 1284.5"/><polygon class="cls-4" points="765.83 1250.4 736.52 1276.9 740.33 1316.1 707.73 1296.2 672.63 1313.2 681.73 1274.4 656.33 1245.6 694.52 1241.6 713.92 1206.9 728.42 1243.1 765.83 1250.4"/><polygon class="cls-4" points="34.52 80.7 27.43 53.6 1.13 44.2 24.63 29.1 25.52 1.1 47.13 18.8 73.92 11 63.83 37 79.53 60.1 51.63 58.6 34.52 80.7"/><polygon class="cls-4" points="16.82 73 25.63 46.5 8.72 24.2 36.63 24.4 52.63 1.4 61.13 28 87.83 36.1 65.22 52.4 65.72 80.4 43.23 63.8 16.82 73"/><path class="cls-19" d="M624.76,1182.67c-4.51-71.91,82.39,16-4.51-71.91S624.76,1182.67,624.76,1182.67Z" transform="translate(8.23 2)"/><path class="cls-20" d="M629.86,1138.55q1.55,3.34,3.7,7.25c-2.38-4.21-5.28-8.89-8.74-14q-2.15-3.93-3.67-7.31Q626.3,1132.21,629.86,1138.55Z" transform="translate(8.23 2)"/><path class="cls-21" d="M619.83,1121.45q5.15,7.73,8.7,14.08.6,1.45,1.33,3-3.57-6.33-8.72-14.05Q620.42,1122.91,619.83,1121.45Z" transform="translate(8.23 2)"/><path class="cls-21" d="M628.46,1129.81a79.43,79.43,0,0,1,4.39,10,12.4,12.4,0,0,0,.08,1.75,79.24,79.24,0,0,0-4.39-10A12.28,12.28,0,0,1,628.46,1129.81Z" transform="translate(8.23 2)"/><path class="cls-20" d="M632.93,1141.52a25.32,25.32,0,0,0,1.08,4.72,78.46,78.46,0,0,0-4.4-10,25.35,25.35,0,0,1-1.06-4.66A79.24,79.24,0,0,1,632.93,1141.52Z" transform="translate(8.23 2)"/><path class="cls-20" d="M629.6,1136.21q.6,1.9,1.52,4.12-1.18-2.29-2.59-4.8-.92-2.24-1.53-4.16Q628.43,1133.91,629.6,1136.21Z" transform="translate(8.23 2)"/><path class="cls-20" d="M634.19,1140.93a6.6,6.6,0,0,0-.39,2.11q-.36-1.51-1-3.27a6.91,6.91,0,0,1,.37-2.15A34.3,34.3,0,0,1,634.19,1140.93Z" transform="translate(8.23 2)"/><path class="cls-20" d="M615.73,1157.26a34.54,34.54,0,0,0-3.91,3.24,36.86,36.86,0,0,1,5.89-12A28.87,28.87,0,0,1,627.9,1140a33.71,33.71,0,0,1,12.9-3.31,55.37,55.37,0,0,1,13.76,1l3.17.6.63.11h.1s0,0,0,.11l0,.25c-.14,1.16-.26,2.13-.36,3.21l-.13,1.43-.1,1.28a26.33,26.33,0,0,0,.12,6.77,2.41,2.41,0,0,0,.44,1.1l0,0h0l-13.15-5.71-.18.58-.6,1.93v-.06a1.9,1.9,0,0,0-.37-.82,28.06,28.06,0,0,0-2.34-2.79c-1.65-1.79-3.35-3.53-5-5.27a3.61,3.61,0,0,0-2.21,2.14q-.12-.81-.34-1.71a3.85,3.85,0,0,1,2.8-2.46c2.06,2.11,4.11,4.22,6.13,6.37,1,1.08,2,2.16,2.92,3.32a10.84,10.84,0,0,1,.64.9,3.47,3.47,0,0,1,.26.49,1.26,1.26,0,0,1,.09.26.8.8,0,0,1,0,.14v.07s0,.05,0,0l.14-.46.28-.92.14-.46c4.81,2-10.67-4.86,10.8,4.48h0l0,0-.09-.11c0-.06,0-.09-.11-.2a5.55,5.55,0,0,1-.39-1.71,40.05,40.05,0,0,1,.17-7.67l.14-1.51,0-.36h0l-.21,0-.73-.13-3-.57c-1-.19-2.09-.37-3.13-.52a53.27,53.27,0,0,0-6.25-.56,35.4,35.4,0,0,0-12.1,1.62,26.36,26.36,0,0,0-10.32,6.27A30.5,30.5,0,0,0,615.73,1157.26Z" transform="translate(8.23 2)"/><path class="cls-20" d="M626.73,1160.75l3.81,1.52c-7-12.87-7.41-13.86-9.93-18.89a142.43,142.43,0,0,1-5.89-13.34,87.66,87.66,0,0,1,9,6.82q-1.59-1.69-3.22-3.51a88.77,88.77,0,0,0-10.82-8.07,167.65,167.65,0,0,0,7.06,16.19q1.94,4,4,7.89l2.05,3.92Z" transform="translate(8.23 2)"/><path class="cls-20" d="M624.81,1131.8q1.57,2.88,3.48,6-2.08-3-4.44-6.28-1.89-3.16-3.43-6Q622.75,1128.76,624.81,1131.8Z" transform="translate(8.23 2)"/><path class="cls-20" d="M614.85,1126.49q2.55,2.17,5.22,4.68c2,2.54,3.95,4.93,5.92,7.18q-2.66-2.59-5.23-4.83C618.81,1131.31,616.83,1129,614.85,1126.49Z" transform="translate(8.23 2)"/><path class="cls-21" d="M610,1114.82a165.08,165.08,0,0,1,13.85,16.74q1.22,2,2.59,4.2c-2-2.67-4.11-5.42-6.43-8.17a79.35,79.35,0,0,0-7.51-7.93C611.58,1117.94,610.78,1116.33,610,1114.82Z" transform="translate(8.23 2)"/><path class="cls-20" d="M626.44,1135.76c2,3.08,4.15,6.33,6.61,9.69a96,96,0,0,0-6.4-7.68c-2.24-2.4-4.44-4.59-6.58-6.61-1.4-1.82-2.79-3.72-4.09-5.67a66.48,66.48,0,0,1-3.48-5.84,79.35,79.35,0,0,1,7.51,7.93C622.33,1130.35,624.46,1133.1,626.44,1135.76Z" transform="translate(8.23 2)"/><path class="cls-20" d="M592.75,1066.9c-2.46-2.56-4.88-4.89-7.15-6.93,0,3.27.16,6.23.15,8.7,2.16,1.92,4.39,4.07,6.69,6.46C592.51,1072.77,592.51,1070,592.75,1066.9Z" transform="translate(8.23 2)"/><path class="cls-21" d="M595.75,1078.69c.11-2.31.18-5.06.55-8-1.18-1.3-2.4-2.61-3.55-3.81-.24,3.05-.24,5.87-.31,8.23Q594.07,1076.84,595.75,1078.69Z" transform="translate(8.23 2)"/><path class="cls-21" d="M615.15,1090.31c1.54-1.83,4-2.93,7.31-3l-2.18-3.27-2.21-3.19a10.69,10.69,0,0,0-4.1,1.32,9.55,9.55,0,0,0-2.68,2.66l1.92,2.67Z" transform="translate(8.23 2)"/><path class="cls-20" d="M618.07,1080.87l-2.5-3.52-2.49-3.37-2.57-3.4-2.52-3.18-1,.56a4.34,4.34,0,0,0-.45.3l-.38.39q-.75.79-1.43,1.57a17.92,17.92,0,0,0-1.07,1.84c-.16.31-.33.61-.47.93l-.36,1,2.08,2.55,2.13,2.69,2.08,2.72,2.13,2.88a9.55,9.55,0,0,1,2.68-2.66A10.69,10.69,0,0,1,618.07,1080.87Z" transform="translate(8.23 2)"/><path class="cls-20" d="M602.88,1074c-1-1.19-2-2.43-3-3.55s-2-2.23-3-3.32c-.16.57-.22,1.22-.33,1.8s-.21,1.15-.26,1.76c.91,1,1.88,2.1,2.81,3.18l1.41,1.64,1.44,1.72.38-1.64C602.51,1075.08,602.69,1074.56,602.88,1074Z" transform="translate(8.23 2)"/><path class="cls-20" d="M633.42,1097.93c-2-3.3-4.06-6.65-6.31-10.14a21.92,21.92,0,0,0-4.65-.46c2.13,3.21,4.2,6.53,6.09,9.65A29.8,29.8,0,0,1,633.42,1097.93Z" transform="translate(8.23 2)"/><path class="cls-20" d="M637.87,1170.63a19.25,19.25,0,0,0,2.09,2.74,10,10,0,0,1,1.33-3.38,6.12,6.12,0,0,1,2.74-2.33c2.28-1,4.83-.59,7.18-.13l1.18.22c.45.08,1,.17,1.56.26s1.28.18,2.3.26l.85,0c.27,0,.67,0,1.06,0s.92,0,1.41-.08l.94-.12c.36-.06.64-.1,1.07-.2s.94-.23,1.4-.37l.35-.11.47-.17q.48-.18.94-.39t.92-.44c.4-.21.8-.45,1.19-.7s.76-.52,1.13-.8l.27-.21.32-.27q.32-.28.63-.57a15.26,15.26,0,0,0,2.22-2.66,16.16,16.16,0,0,0,.91-1.57c.13-.26.27-.56.38-.8l.25-.63c.16-.42.3-.85.43-1.29s.27-1.06.23-.92l0-.21a11.4,11.4,0,0,0-.07-3,27.66,27.66,0,0,0-1.44-5.74,30.78,30.78,0,0,0-3.13-6.31,52.11,52.11,0,0,0-5.08-6.48c-1.9-2.13-3.89-4.24-5.9-6.34-4-4.19-8.08-8.32-12.14-12.45-2.54-5-5.61-10.5-9.21-16.51-1.14-.41-2.24-.76-3.28-1,4.15,7,7.58,13.41,10.26,19l10.76,11q2.68,2.77,5.29,5.58c1.74,1.87,3.42,3.77,4.9,5.69a33.39,33.39,0,0,1,5.72,11,22.63,22.63,0,0,1,.61,2.55,11.76,11.76,0,0,1,.16,1.32,6,6,0,0,1,0,.71c0,.12,0,.25,0,.38l0,.19,0,.09-.13.53c-.1.35-.21.7-.33,1l-.2.51-.11.26-.15.33a13.55,13.55,0,0,1-.7,1.28,12.48,12.48,0,0,1-1.74,2.22,13.62,13.62,0,0,1-1,.93c-.32.26-.59.46-.91.68a13.06,13.06,0,0,1-1.78,1,14.54,14.54,0,0,1-1.52.62c-.37.12-.75.23-1.14.33l-.55.12-.42.08-.85.12a17.43,17.43,0,0,1-3.56,0c-1.5-.15-2.4-.32-3.25-.47l-2.32-.44c-.73-.13-1.45-.23-2.19-.3a13.2,13.2,0,0,0-4.39.24,7.72,7.72,0,0,0-3.78,2.17A10,10,0,0,0,637.87,1170.63Z" transform="translate(8.23 2)"/><path class="cls-20" d="M605,1172.49l-.76,4.09c-3-5.58-5-9.22-10-18.86-4.28-8.31-8.41-16.68-12.13-24.89a188.69,188.69,0,0,1-9.08-23.41,68.6,68.6,0,0,1-3-18.36,80.46,80.46,0,0,1-4.63-10.53l1.86-.14a79.9,79.9,0,0,0,5.63,12.36,79.72,79.72,0,0,0,3.18,17.13,176.19,176.19,0,0,0,8.13,21.16c3.31,7.42,7,15,10.85,22.53,1.92,3.77,3.88,7.54,5.86,11.28Z" transform="translate(8.23 2)"/><path class="cls-20" d="M585.75,1068.67c-1.57-1.39-3.1-2.66-4.59-3.77,0,1,0,2-.08,2.93,1.51,1.06,3,2.28,4.6,3.62C585.73,1070.59,585.75,1069.66,585.75,1068.67Z" transform="translate(8.23 2)"/><path class="cls-20" d="M570.44,1079.33a28,28,0,0,1-.91-4.86,35.67,35.67,0,0,1-3.62.35,42.09,42.09,0,0,0,1.35,4.86C568.36,1079.59,569.41,1079.49,570.44,1079.33Z" transform="translate(8.23 2)"/><path class="cls-21" d="M579.38,1074.09a14.45,14.45,0,0,0,1.2-3,18,18,0,0,0,.5-3.21q-1.46-1-2.88-1.87a16.35,16.35,0,0,1-.7,3.49c-.34,1.16-1,2.3-1.67,4A10.07,10.07,0,0,1,579.38,1074.09Z" transform="translate(8.23 2)"/><path class="cls-20" d="M578.2,1066a19.76,19.76,0,0,0-6.25-2.5,19,19,0,0,1-.78,2.37c-.33.84-.75,1.81-1.06,2.79a14.33,14.33,0,0,0-.57,5.84c.88-.13,1.77-.31,2.79-.52a18.71,18.71,0,0,1,3.51-.5c.72-1.69,1.32-2.83,1.67-4A16.35,16.35,0,0,0,578.2,1066Z" transform="translate(8.23 2)"/><path class="cls-20" d="M621.6,1167.61a32,32,0,0,0-4,4.06,40.42,40.42,0,0,0,3.35,5.68,51.64,51.64,0,0,0,3.72,4.46,47.06,47.06,0,0,1,3.48-4.3,21.1,21.1,0,0,1,3.7-3.06,27.32,27.32,0,0,1-3-4.17,22.12,22.12,0,0,0-4.19,3.23A35.1,35.1,0,0,1,621.6,1167.61Z" transform="translate(8.23 2)"/><path class="cls-20" d="M629.94,1157.07a24.12,24.12,0,0,0-10.27,4.29,35.59,35.59,0,0,0,1.93,6.25,26.72,26.72,0,0,1,4.6-3.19,32.52,32.52,0,0,0,2.7,5.85,16.48,16.48,0,0,1,4-1.69A25.59,25.59,0,0,1,629.94,1157.07Z" transform="translate(8.23 2)"/><path class="cls-21" d="M621.6,1167.61a35.1,35.1,0,0,0,3.11,5.89,22.12,22.12,0,0,1,4.19-3.23,32.52,32.52,0,0,1-2.7-5.85A26.72,26.72,0,0,0,621.6,1167.61Z" transform="translate(8.23 2)"/><path class="cls-20" d="M621.39,1168.81l5,2q-1,5.55-2,11.13-5.29-2-10.58-4.17l1-5.3,5.55,2.22Z" transform="translate(8.23 2)"/><path class="cls-20" d="M611.94,1159.25q5.23,2.19,10.47,4.3l-1,5.26-5.53-2.23-1.12,5.87-5-2Q610.81,1164.81,611.94,1159.25Z" transform="translate(8.23 2)"/><polygon class="cls-21" points="629.61 1170.81 628.51 1176.67 622.96 1174.44 624.08 1168.58 629.61 1170.81"/></svg>